<svg
  id="visual"
  viewBox="0 0 960 540"
  width="960"
  height="540"
  xmlns="http://www.w3.org/2000/svg"
  xmlns:xlink="http://www.w3.org/1999/xlink"
  version="1.1"
>
<defs>
  <linearGradient
    id="grad1_0"
    x1="43.8%"
    y1="100%"
    x2="100%"
    y2="0%"
  >
    <stop
      offset="14.444444444444446%"
      stop-color="#caf0f8"
      stop-opacity="1"
    ></stop>
    <stop
      offset="85.55555555555554%"
      stop-color="#caf0f8"
      stop-opacity="1"
    ></stop>
  </linearGradient>
</defs>
<defs>
  <linearGradient
    id="grad1_1"
    x1="43.8%"
    y1="100%"
    x2="100%"
    y2="0%"
  >
    <stop
      offset="14.444444444444446%"
      stop-color="#caf0f8"
      stop-opacity="1"
    ></stop>
    <stop
      offset="85.55555555555554%"
      stop-color="#5ba4cb"
      stop-opacity="1"
    ></stop>
  </linearGradient>
</defs>
<defs>
  <linearGradient
    id="grad1_2"
    x1="43.8%"
    y1="100%"
    x2="100%"
    y2="0%"
  >
    <stop
      offset="14.444444444444446%"
      stop-color="#00579f"
      stop-opacity="1"
    ></stop>
    <stop
      offset="85.55555555555554%"
      stop-color="#5ba4cb"
      stop-opacity="1"
    ></stop>
  </linearGradient>
</defs>
<defs>
  <linearGradient
    id="grad1_3"
    x1="43.8%"
    y1="100%"
    x2="100%"
    y2="0%"
  >
    <stop
      offset="14.444444444444446%"
      stop-color="#00579f"
      stop-opacity="1"
    ></stop>
    <stop
      offset="85.55555555555554%"
      stop-color="#03045e"
      stop-opacity="1"
    ></stop>
  </linearGradient>
</defs>
<defs>
  <linearGradient
    id="grad2_0"
    x1="0%"
    y1="100%"
    x2="56.3%"
    y2="0%"
  >
    <stop
      offset="14.444444444444446%"
      stop-color="#caf0f8"
      stop-opacity="1"
    ></stop>
    <stop
      offset="85.55555555555554%"
      stop-color="#caf0f8"
      stop-opacity="1"
    ></stop>
  </linearGradient>
</defs>
<defs>
  <linearGradient
    id="grad2_1"
    x1="0%"
    y1="100%"
    x2="56.3%"
    y2="0%"
  >
    <stop
      offset="14.444444444444446%"
      stop-color="#5ba4cb"
      stop-opacity="1"
    ></stop>
    <stop
      offset="85.55555555555554%"
      stop-color="#caf0f8"
      stop-opacity="1"
    ></stop>
  </linearGradient>
</defs>
<defs>
  <linearGradient
    id="grad2_2"
    x1="0%"
    y1="100%"
    x2="56.3%"
    y2="0%"
  >
    <stop
      offset="14.444444444444446%"
      stop-color="#5ba4cb"
      stop-opacity="1"
    ></stop>
    <stop
      offset="85.55555555555554%"
      stop-color="#00579f"
      stop-opacity="1"
    ></stop>
  </linearGradient>
</defs>
<defs>
  <linearGradient
    id="grad2_3"
    x1="0%"
    y1="100%"
    x2="56.3%"
    y2="0%"
  >
    <stop
      offset="14.444444444444446%"
      stop-color="#03045e"
      stop-opacity="1"
    ></stop>
    <stop
      offset="85.55555555555554%"
      stop-color="#00579f"
      stop-opacity="1"
    ></stop>
  </linearGradient>
</defs>
<g
  class="islands"
  transform="translate(960, 540)"
>
  <path
    d="M-324 0C-324.3 -36.4 -324.5 -72.8 -306.2 -99.5C-287.9 -126.2 -251.1 -143.4 -226.5 -164.6C-202 -185.8 -189.7 -211.1 -170.5 -234.6C-151.2 -258.1 -125.1 -279.8 -95.5 -293.9C-65.9 -308 -33 -314.5 0 -321L0 0Z"
    fill="#003181"
  ></path>
  <path
    d="M-243 0C-243.2 -27.3 -243.4 -54.6 -229.7 -74.6C-216 -94.7 -188.3 -107.5 -169.9 -123.4C-151.5 -139.3 -142.3 -158.3 -127.8 -176C-113.4 -193.6 -93.8 -209.8 -71.6 -220.4C-49.4 -231 -24.7 -235.9 0 -240.7L0 0Z"
    fill="#257eb7"
  ></path>
  <path
    d="M-162 0C-162.1 -18.2 -162.3 -36.4 -153.1 -49.8C-144 -63.1 -125.5 -71.7 -113.3 -82.3C-101 -92.9 -94.8 -105.6 -85.2 -117.3C-75.6 -129.1 -62.5 -139.9 -47.7 -146.9C-33 -154 -16.5 -157.2 0 -160.5L0 0Z"
    fill="#91cbe0"
  ></path>
  <path
    d="M-81 0C-81.1 -9.1 -81.1 -18.2 -76.6 -24.9C-72 -31.6 -62.8 -35.8 -56.6 -41.1C-50.5 -46.4 -47.4 -52.8 -42.6 -58.7C-37.8 -64.5 -31.3 -69.9 -23.9 -73.5C-16.5 -77 -8.2 -78.6 0 -80.2L0 0Z"
    fill="#caf0f8"
  ></path>
</g>
<g
  class="islands"
  transform="translate(0, 0)"
>
  <path
    d="M288 0C280.2 30.1 272.5 60.2 258.7 84.1C244.9 107.9 225 125.5 216 156.9C207 188.4 208.8 233.8 190.4 262.1C172.1 290.4 133.7 301.6 98.6 303.4C63.5 305.2 31.7 297.6 0 290L0 0Z"
    fill="#003181"
  ></path>
  <path
    d="M216 0C210.2 22.6 204.4 45.2 194 63C183.7 80.9 168.8 94.1 162 117.7C155.2 141.3 156.6 175.4 142.8 196.6C129.1 217.8 100.3 226.2 73.9 227.5C47.6 228.9 23.8 223.2 0 217.5L0 0Z"
    fill="#257eb7"
  ></path>
  <path
    d="M144 0C140.1 15.1 136.2 30.1 129.3 42C122.4 53.9 112.5 62.7 108 78.5C103.5 94.2 104.4 116.9 95.2 131.1C86.1 145.2 66.8 150.8 49.3 151.7C31.7 152.6 15.9 148.8 0 145L0 0Z"
    fill="#91cbe0"
  ></path>
  <path
    d="M72 0C70.1 7.5 68.1 15.1 64.7 21C61.2 27 56.3 31.4 54 39.2C51.7 47.1 52.2 58.5 47.6 65.5C43 72.6 33.4 75.4 24.6 75.8C15.9 76.3 7.9 74.4 0 72.5L0 0Z"
    fill="#caf0f8"
  ></path>
</g>
</svg>
